<svg width="37" height="37" viewBox="0 0 37 37" fill="none" xmlns="http://www.w3.org/2000/svg">
<circle cx="18.24" cy="18.24" r="18.24" fill="white"/>
<path d="M23.2701 16.7626C23.0161 16.7616 22.7647 16.8136 22.5319 16.9153C22.2992 17.0171 22.0903 17.1663 21.9186 17.3535C21.7469 17.5407 21.6162 17.7616 21.5348 18.0022C21.4534 18.2428 21.4232 18.4978 21.4461 18.7508H25.2035C25.2278 18.4883 25.1949 18.2237 25.1071 17.9752C25.0193 17.7267 24.8786 17.5001 24.6949 17.3112C24.5111 17.1222 24.2886 16.9753 24.0426 16.8806C23.7967 16.7859 23.5331 16.7457 23.2701 16.7626ZM13.6576 18.7872H11.4141V22.3258H13.2381C15.0621 22.3258 15.8646 21.7239 15.8646 20.5018C15.8646 19.2797 15.0256 18.7872 13.6576 18.7872ZM15.2445 15.5405C15.2445 14.5738 14.6061 13.9901 13.5117 13.9901H11.4141V17.1639H12.9645C14.5878 17.1639 15.2445 16.5802 15.2445 15.5405Z" fill="black"/>
<path d="M18.24 0C14.6325 0 11.106 1.06976 8.1064 3.07399C5.10685 5.07823 2.76899 7.92693 1.38845 11.2598C0.0079031 14.5928 -0.35331 18.2602 0.350485 21.7984C1.05428 25.3367 2.79147 28.5867 5.34238 31.1376C7.89329 33.6885 11.1433 35.4257 14.6816 36.1295C18.2198 36.8333 21.8872 36.4721 25.2201 35.0916C28.5531 33.711 31.4018 31.3731 33.406 28.3736C35.4102 25.374 36.48 21.8475 36.48 18.24C36.48 15.8447 36.0082 13.4728 35.0916 11.2598C34.1749 9.04687 32.8314 7.03611 31.1376 5.34237C29.4439 3.64863 27.4331 2.30508 25.2201 1.38844C23.0072 0.471791 20.6353 0 18.24 0ZM14.0448 24.0768H9.12V12.2208H14.0448C16.1789 12.2208 17.5834 13.3334 17.5834 15.1392C17.6085 15.7458 17.4167 16.3416 17.0423 16.8196C16.668 17.2976 16.1355 17.6266 15.5405 17.7475C15.9176 17.7563 16.2889 17.8418 16.6318 17.9991C16.9746 18.1563 17.2818 18.3818 17.5345 18.6618C17.7872 18.9418 17.9801 19.2704 18.1014 19.6276C18.2227 19.9847 18.2699 20.3629 18.24 20.7389C18.24 22.8547 16.416 24.0768 14.0448 24.0768ZM20.52 13.1328H25.992V14.0448H20.52V13.1328ZM27.36 20.1552H21.3408V20.4106C21.3094 20.6877 21.3378 20.9684 21.4241 21.2337C21.5104 21.4989 21.6525 21.7426 21.8409 21.9483C22.0293 22.154 22.2596 22.3169 22.5163 22.4261C22.773 22.5352 23.0501 22.5881 23.329 22.5811C23.7205 22.6419 24.1208 22.5591 24.456 22.3479C24.7913 22.1367 25.0388 21.8114 25.153 21.432H27.36C27.1635 22.3076 26.6511 23.08 25.9209 23.6015C25.1907 24.1231 24.2939 24.3573 23.4019 24.2592C22.8318 24.3168 22.2561 24.2487 21.7151 24.0598C21.1742 23.8709 20.6812 23.5658 20.2708 23.1659C19.8605 22.766 19.5428 22.281 19.34 21.7451C19.1373 21.2092 19.0544 20.6354 19.0973 20.064V19.2614C19.0585 18.7078 19.14 18.1523 19.3361 17.6331C19.5321 17.1139 19.8382 16.6433 20.2332 16.2534C20.6282 15.8636 21.1029 15.5638 21.6247 15.3746C22.1464 15.1855 22.7029 15.1114 23.256 15.1574C23.8073 15.1221 24.3597 15.2053 24.8761 15.4014C25.3925 15.5975 25.8609 15.9019 26.2497 16.2942C26.6386 16.6865 26.9389 17.1576 27.1304 17.6757C27.3219 18.1939 27.4002 18.747 27.36 19.2979V20.1552Z" fill="black"/>
</svg>
