<svg width="37" height="37" viewBox="0 0 37 37" fill="none" xmlns="http://www.w3.org/2000/svg">
<circle cx="18.7166" cy="18.24" r="18.24" fill="#1E1E1E"/>
<path d="M10.4766 26C9.92656 26 9.45556 25.804 9.06356 25.412C8.67156 25.02 8.4759 24.5493 8.47656 24V12C8.47656 11.45 8.67256 10.979 9.06456 10.587C9.45656 10.195 9.92723 9.99934 10.4766 10H26.4766C27.0266 10 27.4976 10.196 27.8896 10.588C28.2816 10.98 28.4772 11.4507 28.4766 12V24C28.4766 24.55 28.2806 25.021 27.8886 25.413C27.4966 25.805 27.0259 26.0007 26.4766 26H10.4766ZM26.4766 14L19.0016 18.675C18.9182 18.725 18.8306 18.7627 18.7386 18.788C18.6466 18.8133 18.5592 18.8257 18.4766 18.825C18.3932 18.825 18.3056 18.8127 18.2136 18.788C18.1216 18.7633 18.0342 18.7257 17.9516 18.675L10.4766 14V24H26.4766V14ZM18.4766 17L26.4766 12H10.4766L18.4766 17ZM10.4766 14.25V12.775V12.8V12.788V14.25Z" fill="white"/>
</svg>
