<svg width="37" height="37" viewBox="0 0 37 37" fill="none" xmlns="http://www.w3.org/2000/svg">
<path d="M18.7166 0.47998C8.64808 0.47998 0.476562 8.6515 0.476562 18.72C0.476562 28.7885 8.64808 36.96 18.7166 36.96C28.785 36.96 36.9566 28.7885 36.9566 18.72C36.9566 8.6515 28.785 0.47998 18.7166 0.47998ZM27.1799 12.8832C26.9063 15.7651 25.7207 22.7693 25.1188 25.9977C24.8634 27.3657 24.3527 27.8217 23.8785 27.8765C22.8206 27.9677 22.018 27.1833 20.9966 26.5085C19.3914 25.4505 18.4794 24.7939 16.929 23.7725C15.1233 22.5869 16.2906 21.9302 17.3303 20.8723C17.6039 20.5987 22.2734 16.3488 22.3646 15.9657C22.3772 15.9077 22.3755 15.8475 22.3597 15.7903C22.3438 15.7331 22.3141 15.6806 22.2734 15.6374C22.1639 15.5462 22.018 15.5827 21.8903 15.6009C21.7262 15.6374 19.1726 17.3337 14.193 20.6899C13.4634 21.1824 12.8068 21.4377 12.2231 21.4195C11.5665 21.4013 10.3262 21.0547 9.39592 20.7446C8.2468 20.3798 7.35304 20.1792 7.426 19.5408C7.46248 19.2125 7.91848 18.8841 8.77576 18.5376C14.1018 16.2211 17.6404 14.6889 19.4097 13.9593C24.4804 11.8435 25.5201 11.4787 26.2132 11.4787C26.3591 11.4787 26.7057 11.5152 26.9246 11.6976C27.107 11.8435 27.1617 12.0441 27.1799 12.1901C27.1617 12.2995 27.1982 12.6278 27.1799 12.8832Z" fill="#1E1E1E"/>
</svg>
